<svg width="889" height="513" viewBox="0 0 889 513" fill="none" xmlns="http://www.w3.org/2000/svg">
<path fill-rule="evenodd" clip-rule="evenodd" d="M-102 474.932H1005V426.757H-102V474.932Z" fill="#D4AF37"/>
<path fill-rule="evenodd" clip-rule="evenodd" d="M-102 415.815H1005V426.757H-102V415.815Z" fill="#BD9A29"/>
<path fill-rule="evenodd" clip-rule="evenodd" d="M761.5 518.5L818.5 477.5L887.06 122.842C883.54 119.519 875.459 118.412 873.776 124.392L873.643 124.88C860.116 141.447 848.647 173.077 847.895 213.677L738.169 213.256C737.261 213.335 736.4 213.693 735.702 214.279C735.005 214.866 734.506 215.654 734.272 216.535L670.686 156.155C668.75 154.254 666.159 153.168 663.446 153.12H225.539C219.096 153.12 213.827 159.477 213.827 167.252L213.274 271.355L153.296 214.364C152.598 213.703 151.688 213.311 150.728 213.256L110.168 213.412L13.6151 121.823L13.4822 121.69C9.18708 118.08 -0.510238 122 0.508202 126.962C4.7148 147.716 19.9914 275.696 25.4378 287.103C28.6703 293.748 32.8326 299.862 35.3566 306.44L38.1241 329.476C39.8953 356.897 45.0096 382.324 44.7661 409.524C44.434 434.974 36.4414 457.943 35.9101 463.835L105.053 529.376H1005L761.5 518.5Z" fill="url(#paint0_linear_8_71)" fill-opacity="0.28"/>
<path fill-rule="evenodd" clip-rule="evenodd" d="M214.425 167.252V326.242C266.033 277.225 317.642 373.73 369.25 324.713C420.858 275.696 472.334 371.604 523.765 323.451C574.266 281.499 624.768 372.844 675.247 324.891L674.406 167.252C674.406 159.477 669.158 153.12 662.716 153.12H226.093C219.672 153.12 214.425 159.477 214.425 167.252Z" fill="#BBADA6"/>
<path fill-rule="evenodd" clip-rule="evenodd" d="M426.814 410.964H462.858C463.445 410.964 464.008 411.197 464.423 411.613C464.839 412.028 465.072 412.591 465.072 413.179V418.451C465.072 419.038 464.839 419.601 464.423 420.017C464.008 420.432 463.445 420.666 462.858 420.666H426.814C426.227 420.666 425.664 420.432 425.248 420.017C424.833 419.601 424.6 419.038 424.6 418.451V413.179C424.6 412.591 424.833 412.028 425.248 411.613C425.664 411.197 426.227 410.964 426.814 410.964Z" fill="#800020"/>
<path fill-rule="evenodd" clip-rule="evenodd" d="M418.866 377.811C387.205 377.013 376.335 381.842 369.427 394.29C363.073 405.741 348.704 457.727 332.32 449.775C321.981 444.747 332.985 441.38 325.678 438.301C313.634 433.229 308.741 460.296 329.641 463.33C361.634 467.96 363.316 445.345 382.445 416.196C391.833 401.887 420.083 410.636 420.083 410.636L418.866 377.811Z" fill="#800020"/>
<path fill-rule="evenodd" clip-rule="evenodd" d="M470.806 377.811C502.466 377.013 513.359 381.842 520.245 394.29C526.599 405.741 540.968 457.727 557.351 449.775C567.691 444.747 556.687 441.38 563.993 438.301C576.06 433.229 580.93 460.296 560.03 463.33C528.038 467.96 526.377 445.345 507.248 416.196C497.839 401.887 469.61 410.636 469.61 410.636L470.806 377.811Z" fill="#800020"/>
<path fill-rule="evenodd" clip-rule="evenodd" d="M425.264 407.265H464.43V173.232H425.264V407.265Z" fill="#800020"/>
<path fill-rule="evenodd" clip-rule="evenodd" d="M444.836 173.232H464.43V386.134H444.836V173.232Z" fill="#A8002A"/>
<path fill-rule="evenodd" clip-rule="evenodd" d="M422.718 363.254H466.998C467.748 363.259 468.465 363.56 468.995 364.09C469.526 364.621 469.826 365.339 469.832 366.089V370.231C469.826 370.981 469.526 371.699 468.995 372.229C468.465 372.76 467.748 373.06 466.998 373.066H422.718C421.97 373.06 421.255 372.759 420.728 372.228C420.202 371.697 419.906 370.979 419.906 370.231V366.133C419.9 365.759 419.969 365.387 420.107 365.04C420.245 364.692 420.451 364.375 420.713 364.108C420.974 363.84 421.286 363.627 421.63 363.48C421.974 363.333 422.344 363.257 422.718 363.254Z" fill="#800020"/>
<path fill-rule="evenodd" clip-rule="evenodd" d="M418.024 371.25H471.647C473.307 371.256 474.898 371.918 476.071 373.092C477.245 374.266 477.907 375.857 477.913 377.518V408.948C477.907 410.609 477.245 412.2 476.071 413.374C474.898 414.549 473.307 415.211 471.647 415.217H418.024C416.364 415.211 414.774 414.549 413.6 413.374C412.427 412.2 411.765 410.609 411.759 408.948V377.518C411.765 375.857 412.427 374.266 413.6 373.092C414.774 371.918 416.364 371.256 418.024 371.25Z" fill="#A8002A"/>
<path d="M413.729 72.8279C413.691 68.2282 411.828 63.8321 408.55 60.6066C405.272 57.3812 400.847 55.5906 396.25 55.6288C391.652 55.6669 387.258 57.5308 384.034 60.8103C380.81 64.0897 379.02 68.5162 379.058 73.1159V150.617C379.075 151.616 379.484 152.568 380.196 153.268C380.909 153.969 381.867 154.361 382.866 154.361H409.921C410.427 154.378 410.931 154.295 411.404 154.116C411.877 153.936 412.31 153.665 412.676 153.316C413.043 152.968 413.337 152.549 413.541 152.086C413.744 151.623 413.853 151.123 413.862 150.617V73.4481C413.874 73.2416 413.874 73.0345 413.862 72.8279H413.729Z" fill="#1F161C"/>
<path d="M400.29 23.7222H392.541C392.013 23.7222 391.506 23.9323 391.132 24.3061C390.759 24.68 390.549 25.187 390.549 25.7157V58.2756C390.549 58.8043 390.759 59.3114 391.132 59.6852C391.506 60.0591 392.013 60.2691 392.541 60.2691H400.29C400.819 60.2691 401.326 60.0591 401.699 59.6852C402.073 59.3114 402.283 58.8043 402.283 58.2756V25.7157C402.277 25.1888 402.065 24.6851 401.693 24.3125C401.32 23.9399 400.817 23.728 400.29 23.7222Z" fill="#1F161C" fill-opacity="0.2"/>
<path d="M402.571 35.8824H390.15V29.6805C390.099 28.8334 390.223 27.9849 390.512 27.1871C390.801 26.3894 391.25 25.6592 391.832 25.0415C392.414 24.4238 393.115 23.9317 393.894 23.5953C394.673 23.2588 395.512 23.0853 396.36 23.0853C397.209 23.0853 398.048 23.2588 398.827 23.5953C399.605 23.9317 400.307 24.4238 400.889 25.0415C401.47 25.6592 401.92 26.3894 402.209 27.1871C402.498 27.9849 402.621 28.8334 402.571 29.6805V35.8824Z" fill="#C3B7B0" fill-opacity="0.2"/>
<path d="M403.102 28.0193C403.102 28.9052 402.681 29.614 402.216 29.614H390.216C389.729 29.614 389.331 28.9052 389.331 28.0193C389.331 27.1333 389.729 26.4023 390.216 26.4023H402.216C402.792 26.4023 403.102 27.1111 403.102 28.0193Z" fill="#7B5F50" fill-opacity="0.2"/>
<path d="M396.615 131.015C393.092 131.015 389.713 129.615 387.222 127.122C384.731 124.63 383.331 121.25 383.331 117.725V96.0629C383.13 94.2076 383.321 92.3307 383.893 90.5545C384.465 88.7782 385.405 87.1424 386.651 85.7535C387.897 84.3646 389.421 83.2537 391.124 82.4932C392.828 81.7328 394.672 81.3398 396.537 81.3398C398.403 81.3398 400.247 81.7328 401.951 82.4932C403.654 83.2537 405.178 84.3646 406.424 85.7535C407.67 87.1424 408.61 88.7782 409.182 90.5545C409.754 92.3307 409.945 94.2076 409.744 96.0629V117.792C409.727 121.278 408.341 124.618 405.885 127.092C403.429 129.565 400.1 130.974 396.615 131.015Z" fill="#C3B7B0"/>
<path d="M410.674 135.578C410.674 137.505 407.53 139.033 403.655 139.033C399.781 139.033 396.615 137.505 396.615 135.578V72.6064C396.615 70.7016 399.759 69.1511 403.655 69.1511C407.552 69.1511 410.674 70.7016 410.674 72.6064V135.578Z" fill="white" fill-opacity="0.2"/>
<path d="M401.375 54.9089C401.375 55.6177 400.025 56.1714 398.386 56.1714C396.748 56.1714 395.397 55.6177 395.397 54.9089V32.1169C395.397 31.4303 396.726 30.8544 398.386 30.8544C400.047 30.8544 401.375 31.4303 401.375 32.1169V54.9089Z" fill="white" fill-opacity="0.2"/>
<path fill-rule="evenodd" clip-rule="evenodd" d="M675.247 167.252V326.242C623.484 277.225 571.72 373.73 519.957 324.713C468.194 275.696 416.541 371.604 364.977 323.451C314.343 281.499 263.686 372.844 213.03 324.891L213.871 167.252C213.871 159.477 219.141 153.12 225.583 153.12H663.535C669.978 153.12 675.247 159.477 675.247 167.252Z" fill="#E0C670"/>
<path fill-rule="evenodd" clip-rule="evenodd" d="M440.873 463.724H448.799V377.518H440.873V463.724Z" fill="#800020"/>
<path fill-rule="evenodd" clip-rule="evenodd" d="M878.802 141.182C879.51 138.502 875.968 122.399 875.968 122.399C856.33 143.84 840.013 196.733 852.278 263.27L878.802 141.182Z" fill="#CEC4BF"/>
<path fill-rule="evenodd" clip-rule="evenodd" d="M845.592 298.51C838.95 272.241 681.357 266.216 681.601 306.329L695.593 314.414L832.861 314.768L845.57 298.51H845.592Z" fill="#CEC4BF"/>
<path fill-rule="evenodd" clip-rule="evenodd" d="M681.18 316.983C681.18 316.983 681.291 322.476 681.513 329.365C681.845 340.285 682.42 354.726 683.217 356.321C684.524 358.934 688.597 380.818 688.243 409.48C687.911 434.93 679.918 457.899 679.498 463.791H692.981C698.714 448.173 702.238 431.832 703.453 415.239C705.667 385.536 700.841 338.38 700.841 338.38L700.531 329.52H828.721C834.367 359.289 826.729 381.66 829.231 415.327C830.445 431.92 833.97 448.262 839.703 463.879H853.208C852.765 457.988 844.795 435.085 844.463 409.569C844.109 382.369 849.201 356.941 850.972 329.52L853.74 306.484C856.264 299.839 860.382 293.881 863.658 287.148C869.105 275.741 884.381 147.76 888.61 127.006C889.806 121.114 875.99 116.684 873.887 124.547C873.09 127.582 871.983 133.407 870.234 144.792C866.913 166.698 855.776 251.885 848.714 272.861C841.474 294.457 827.083 294.878 826.574 306.484H681.513V317.138L681.18 316.983Z" fill="#800020"/>
<path fill-rule="evenodd" clip-rule="evenodd" d="M868.529 213.744L738.279 213.257C747.357 248.12 744.744 277.712 727.054 309.585L742.552 310.316C753.047 277.734 756.656 258.995 749.416 222.559L864.987 223.645L868.44 213.744H868.529Z" fill="#800020"/>
<path fill-rule="evenodd" clip-rule="evenodd" d="M749.46 215.804C748.995 215.516 738.279 213.257 738.279 213.257C731.637 213.699 731.77 229.116 744.921 228.894L749.46 215.804Z" fill="#800020"/>
<path fill-rule="evenodd" clip-rule="evenodd" d="M10.2719 141.182C9.56346 138.502 13.128 122.399 13.128 122.399C32.7662 143.84 49.1055 196.733 36.8399 263.27L10.2719 141.182Z" fill="#CEC4BF"/>
<path fill-rule="evenodd" clip-rule="evenodd" d="M43.5041 298.51C50.1461 272.241 207.739 266.216 207.517 306.329L193.503 314.525L56.2346 314.879L43.5041 298.51Z" fill="#CEC4BF"/>
<path fill-rule="evenodd" clip-rule="evenodd" d="M207.827 316.983C207.827 316.983 207.717 322.476 207.517 329.365C207.163 340.285 206.587 354.726 205.79 356.321C204.484 358.935 200.41 380.818 200.787 409.48C201.119 434.93 209.089 457.899 209.643 463.791H196.137C190.405 448.174 186.887 431.832 185.687 415.239C183.473 385.536 188.278 338.38 188.278 338.38L188.588 329.52H60.2862C54.6405 359.289 62.301 381.66 59.777 415.327C58.5621 431.92 55.0373 448.262 49.3048 463.879H35.8215C36.2422 457.988 44.2347 435.085 44.6775 409.569C45.0318 382.369 39.9174 356.941 38.0355 329.52L35.268 306.329C32.7441 299.684 28.626 293.726 25.3493 286.993C19.9029 275.586 4.62625 147.605 0.419647 126.851C-0.798053 120.959 13.0395 116.529 15.1206 124.392C15.9398 127.427 17.0468 133.252 18.7737 144.637C22.1168 166.543 33.2311 251.73 40.2938 272.706C47.5557 294.302 61.9467 294.723 62.4338 306.329H207.517V316.983H207.827Z" fill="#800020"/>
<path fill-rule="evenodd" clip-rule="evenodd" d="M20.4785 213.744L150.728 213.257C141.673 248.12 144.263 277.712 161.953 309.585L146.455 310.316C135.961 277.734 132.374 258.995 139.614 222.559L23.9323 223.711L20.4785 213.744Z" fill="#800020"/>
<path fill-rule="evenodd" clip-rule="evenodd" d="M139.547 215.804C140.012 215.516 150.728 213.257 150.728 213.257C157.37 213.699 157.237 229.116 144.086 228.894L139.547 215.804Z" fill="#800020"/>
<path fill-rule="evenodd" clip-rule="evenodd" d="M-102 583H1005V463.724H-102V583Z" fill="#E6D089"/>
<path fill-rule="evenodd" clip-rule="evenodd" d="M280.69 274.367C275.465 287.95 269.333 301.167 262.336 313.926C257.341 323.247 250.949 331.747 243.384 339.133C259.391 340.107 275.398 332.621 291.406 325.289C315.915 314.059 340.424 303.14 364.91 323.451C365.885 324.359 366.859 325.223 367.811 326.02C355.457 312.93 346.756 293.637 339.914 274.367C338.165 269.472 336.549 264.555 335.021 259.749C326.365 232.549 320.608 208.605 312.461 206.589C305.819 204.84 297.494 230.112 286.291 259.749C284.498 264.533 282.616 269.45 280.668 274.367H280.69Z" fill="#D4AF37"/>
<path fill-rule="evenodd" clip-rule="evenodd" d="M513.116 274.367C509.802 287.461 505.142 300.176 499.212 312.31C507.029 314.759 514.143 319.051 519.957 324.824C520.333 325.201 520.732 325.555 521.13 325.909C546.591 348.945 572.052 337.294 597.535 325.621L602.118 323.407C597.137 308.633 591.558 291.223 585.624 274.367C583.897 269.428 582.126 264.533 580.333 259.749C568.886 229.226 556.532 203.909 545.064 204.729C530.85 205.748 524.451 231.308 517.012 259.749C515.75 264.577 514.466 269.494 513.116 274.367Z" fill="#D4AF37"/>
<path d="M519.669 72.2963H474.282L459.271 153.519H504.658L519.669 72.2963Z" fill="#DABA31"/>
<path d="M475.079 72.2963H520.466L535.477 153.519H490.09L475.079 72.2963Z" fill="#EAD88A"/>
<path d="M516.26 83.6812H484.754L484.555 81.4663H516.06L516.26 83.6812Z" fill="#816759"/>
<path d="M517.344 91.7216H485.839L485.618 89.5066H517.123L517.344 91.7216Z" fill="#816759"/>
<path d="M518.429 99.7619H486.924L486.703 97.5469H518.208L518.429 99.7619Z" fill="#816759"/>
<path d="M519.492 107.802H487.987L487.787 105.587H519.293L519.492 107.802Z" fill="#816759"/>
<path d="M520.577 115.842H489.072L488.872 113.628H520.377L520.577 115.842Z" fill="#816759"/>
<path d="M327.892 150.019H324.992V129.487H327.892V150.019Z" fill="#F6F4F3"/>
<path d="M314.033 152.81H338.852L326.453 148.07L314.033 152.81Z" fill="#F6F4F3"/>
<path d="M328.357 134.138H324.549C319.036 134.138 314.564 130.417 314.564 125.81V92.5854H338.342V125.81C338.342 130.417 333.87 134.138 328.357 134.138Z" fill="#F6F4F3"/>
<path d="M326.298 105.144V132.056H324.616C322.602 132.209 320.609 131.555 319.077 130.238C317.545 128.921 316.599 127.049 316.446 125.035V105.1L326.298 105.144ZM326.298 132.056H328.291C330.29 132.184 332.26 131.519 333.772 130.205C335.285 128.891 336.219 127.033 336.372 125.035V105.1H326.276L326.298 132.056Z" fill="#B04A46"/>
<path d="M563.241 150.019H560.34V129.487H563.241V150.019Z" fill="#F6F4F3"/>
<path d="M549.381 152.81H574.2L561.779 148.07L549.381 152.81Z" fill="#F6F4F3"/>
<path d="M563.683 134.138H559.986C554.473 134.138 550.001 130.417 550.001 125.81V92.5854H573.779V125.81C573.779 130.417 569.351 134.138 563.794 134.138H563.683Z" fill="#F6F4F3"/>
<path d="M561.624 105.144V132.056H559.986C557.983 132.19 556.008 131.528 554.49 130.213C552.973 128.898 552.036 127.037 551.883 125.035V105.1L561.624 105.144ZM561.624 132.056H563.617C565.62 132.19 567.595 131.528 569.112 130.213C570.63 128.898 571.567 127.037 571.72 125.035V105.1H561.624V132.056Z" fill="#B04A46"/>
<path d="M625.365 153.165H530.938C530.216 153.165 529.523 152.878 529.013 152.367C528.502 151.856 528.215 151.163 528.215 150.44C528.215 149.718 528.502 149.025 529.013 148.514C529.523 148.003 530.216 147.716 530.938 147.716H625.365C626.088 147.716 626.78 148.003 627.291 148.514C627.802 149.025 628.089 149.718 628.089 150.44C628.089 151.163 627.802 151.856 627.291 152.367C626.78 152.878 626.088 153.165 625.365 153.165Z" fill="#97110C"/>
<path d="M626.539 147.716H529.765C528.901 147.716 528.215 148.934 528.215 150.44H628.089C628.089 148.934 627.402 147.716 626.539 147.716Z" fill="#9F241F"/>
<path d="M368.209 153.165H273.782C273.06 153.165 272.367 152.878 271.857 152.367C271.346 151.856 271.059 151.163 271.059 150.44C271.059 149.718 271.346 149.025 271.857 148.514C272.367 148.003 273.06 147.716 273.782 147.716H368.209C368.932 147.716 369.624 148.003 370.135 148.514C370.646 149.025 370.933 149.718 370.933 150.44C370.933 151.163 370.646 151.856 370.135 152.367C369.624 152.878 368.932 153.165 368.209 153.165Z" fill="#97110C"/>
<path d="M369.405 147.716H272.609C271.767 147.716 271.059 148.934 271.059 150.44H370.955C370.955 148.934 370.246 147.716 369.405 147.716Z" fill="#9F241F"/>
<path d="M479.994 77.5901H472.467V15.3718H479.994V77.5901Z" fill="#F6F4F3"/>
<path d="M442.024 77.5901H434.496V15.3718H442.024V77.5901Z" fill="#F6F4F3"/>
<path d="M400.799 14.7959C402.308 12.6361 403.141 10.0763 403.192 7.44176C403.244 4.80724 402.511 2.21695 401.087 0C401.087 0 393.56 9.30284 400.799 14.7959Z" fill="#F1E4AF"/>
<path d="M400.689 13.91C401.755 12.4932 402.349 10.7762 402.385 9.00282C402.42 7.22946 401.897 5.4899 400.888 4.03123C400.888 4.03123 395.508 10.2331 400.689 13.91Z" fill="#F9F2F0"/>
<path d="M438.615 14.7959C440.123 12.6361 440.956 10.0763 441.007 7.44176C441.059 4.80724 440.326 2.21695 438.902 0C438.902 0 431.375 9.30284 438.615 14.7959Z" fill="#F1E4AF"/>
<path d="M438.504 13.91C439.571 12.4932 440.164 10.7762 440.2 9.00282C440.235 7.22946 439.712 5.4899 438.703 4.03123C438.703 4.03123 433.323 10.2331 438.504 13.91Z" fill="#F9F2F0"/>
<path d="M476.607 14.7959C478.119 12.6383 478.956 10.0797 479.011 7.44513C479.066 4.8106 478.337 2.21913 476.917 0C476.917 0 469.367 9.30284 476.607 14.7959Z" fill="#F1E4AF"/>
<path d="M476.496 13.91C477.569 12.4969 478.168 10.7807 478.208 9.00652C478.248 7.23233 477.726 5.49096 476.717 4.03123C476.717 4.03123 471.426 10.2331 476.496 13.91Z" fill="#F9F2F0"/>
<path d="M403.965 77.5901H396.438V15.3718H403.965V77.5901Z" fill="#F6F4F3"/>
<path d="M485.153 76.8149H467.308C467.155 76.8149 467.009 76.8755 466.901 76.9835C466.793 77.0915 466.732 77.238 466.732 77.3908V77.5237C466.738 77.6725 466.801 77.8134 466.909 77.9166C467.016 78.0199 467.159 78.0775 467.308 78.0774H467.662C468.204 78.1303 468.738 78.2417 469.256 78.4096V85.9627C469.26 87.2023 469.709 88.3992 470.522 89.3347C471.335 90.2701 472.458 90.8815 473.684 91.0571C473.485 91.7659 473.286 92.4746 473.042 93.117C471.707 96.8326 469.083 99.9451 465.647 101.888C463.96 102.975 462.064 103.696 460.081 104.005C458.098 104.314 456.073 104.204 454.135 103.682C451.217 102.802 448.547 101.246 446.341 99.1417C444.215 97.1348 442.381 94.8382 440.895 92.3196V91.1457C442.122 90.9701 443.244 90.3587 444.057 89.4233C444.87 88.4878 445.319 87.2909 445.323 86.0513V78.4982C445.848 78.328 446.39 78.2166 446.939 78.166H447.293C447.442 78.1661 447.585 78.1085 447.693 78.0052C447.8 77.902 447.863 77.7611 447.869 77.6123V77.3908C447.869 77.238 447.808 77.0915 447.7 76.9835C447.592 76.8755 447.446 76.8149 447.293 76.8149H429.36C429.207 76.8149 429.061 76.8755 428.953 76.9835C428.845 77.0915 428.784 77.238 428.784 77.3908V77.5237C428.79 77.6725 428.853 77.8134 428.961 77.9166C429.068 78.0199 429.211 78.0775 429.36 78.0774H429.714C430.263 78.1303 430.805 78.2417 431.33 78.4096V85.9627C431.337 87.1772 431.767 88.3512 432.548 89.2816C433.328 90.2119 434.409 90.84 435.604 91.0571V92.231C434.132 94.7536 432.305 97.0512 430.179 99.0531C427.974 101.158 425.304 102.713 422.386 103.594C420.448 104.117 418.422 104.228 416.439 103.919C414.456 103.61 412.56 102.888 410.873 101.8C407.479 99.8662 404.881 96.7889 403.545 93.117C403.291 92.4433 403.077 91.7555 402.903 91.0571C404.127 90.8772 405.247 90.2645 406.059 89.33C406.872 88.3955 407.323 87.201 407.331 85.9627V78.4982C407.856 78.3303 408.398 78.2189 408.947 78.166H409.301C409.448 78.166 409.589 78.1077 409.693 78.0038C409.796 77.9 409.855 77.7591 409.855 77.6123V77.3908C409.855 77.2418 409.797 77.0986 409.694 76.9912C409.591 76.8838 409.45 76.8206 409.301 76.8149H391.279C391.127 76.8149 390.98 76.8755 390.872 76.9835C390.764 77.0915 390.704 77.238 390.704 77.3908V77.5237C390.709 77.6725 390.772 77.8134 390.88 77.9166C390.987 78.0199 391.13 78.0775 391.279 78.0774H391.722C392.264 78.1303 392.798 78.2417 393.316 78.4096V85.9627C393.292 87.3298 393.809 88.651 394.755 89.6384C395.7 90.6258 396.998 91.1994 398.364 91.2343H398.475C398.723 92.4158 399.056 93.578 399.471 94.7118C401.17 99.2871 404.411 103.126 408.637 105.565C410.949 106.96 413.515 107.878 416.187 108.267C418.608 108.592 421.07 108.426 423.427 107.78C428.181 106.312 432.39 103.458 435.515 99.5847V139.077C435.23 139.267 434.996 139.523 434.834 139.825C434.672 140.126 434.586 140.463 434.585 140.805V142.134H433.965C433.378 142.134 432.815 142.367 432.4 142.783C431.984 143.198 431.751 143.762 431.751 144.349V144.593C431.497 144.799 431.292 145.059 431.15 145.354C431.009 145.648 430.934 145.971 430.932 146.298V149.576H445.412V146.187C445.408 145.847 445.326 145.513 445.173 145.209C445.019 144.906 444.798 144.642 444.526 144.438V144.238C444.526 143.651 444.293 143.087 443.877 142.672C443.462 142.257 442.899 142.023 442.312 142.023H441.758V140.694C441.747 140.349 441.655 140.01 441.49 139.706C441.325 139.402 441.091 139.142 440.806 138.945V99.6733C443.944 103.544 448.159 106.396 452.917 107.869C455.273 108.515 457.735 108.681 460.157 108.356C462.827 107.963 465.393 107.044 467.707 105.654C471.932 103.214 475.174 99.3757 476.872 94.8004C477.277 93.6632 477.61 92.5018 477.869 91.3229H478.068C479.442 91.3229 480.76 90.7768 481.731 89.8048C482.703 88.8328 483.249 87.5145 483.249 86.1399V78.4982C483.767 78.3303 484.301 78.2189 484.843 78.166H485.197C485.344 78.166 485.485 78.1077 485.589 78.0038C485.692 77.9 485.751 77.7591 485.751 77.6123V77.3908C485.751 77.2418 485.693 77.0986 485.59 76.9912C485.487 76.8838 485.346 76.8206 485.197 76.8149H485.153Z" fill="#897163"/>
<path d="M463.832 153.12H412.6V151.57C412.6 150.892 412.868 150.242 413.344 149.761C413.821 149.28 414.469 149.006 415.146 149H461.286C461.963 149.006 462.611 149.28 463.088 149.761C463.564 150.242 463.832 150.892 463.832 151.57V153.12Z" fill="#897163"/>
<defs>
<linearGradient id="paint0_linear_8_71" x1="626.916" y1="81.1642" x2="626.916" y2="743.185" gradientUnits="userSpaceOnUse">
<stop stop-color="white"/>
<stop offset="1"/>
</linearGradient>
</defs>
</svg>
