<svg width="85" height="84" viewBox="0 0 85 84" fill="none" xmlns="http://www.w3.org/2000/svg">
<rect x="0.5" width="84" height="84" rx="42" fill="black" fill-opacity="0.2"/>
<path d="M20.9659 36.017V34.4545H31.875V36.017H27.3011V49H25.5398V36.017H20.9659ZM39.1317 40.946V42.5085H32.7681V40.946H39.1317ZM46.7969 49.1989C45.7268 49.1989 44.8153 48.9077 44.0625 48.3253C43.3097 47.7382 42.7344 46.8883 42.3366 45.7756C41.9389 44.6581 41.7401 43.3087 41.7401 41.7273C41.7401 40.1553 41.9389 38.813 42.3366 37.7003C42.7391 36.5829 43.3168 35.7306 44.0696 35.1435C44.8272 34.5516 45.7363 34.2557 46.7969 34.2557C47.8575 34.2557 48.7642 34.5516 49.517 35.1435C50.2746 35.7306 50.8523 36.5829 51.25 37.7003C51.6525 38.813 51.8537 40.1553 51.8537 41.7273C51.8537 43.3087 51.6548 44.6581 51.2571 45.7756C50.8594 46.8883 50.2841 47.7382 49.5312 48.3253C48.7784 48.9077 47.867 49.1989 46.7969 49.1989ZM46.7969 47.6364C47.8575 47.6364 48.6813 47.125 49.2685 46.1023C49.8556 45.0795 50.1491 43.6212 50.1491 41.7273C50.1491 40.4678 50.0142 39.3954 49.7443 38.5099C49.4792 37.6245 49.0956 36.9498 48.5938 36.4858C48.0966 36.0218 47.4976 35.7898 46.7969 35.7898C45.7457 35.7898 44.9242 36.3082 44.3324 37.3452C43.7405 38.3774 43.4446 39.8381 43.4446 41.7273C43.4446 42.9867 43.5772 44.0568 43.8423 44.9375C44.1075 45.8182 44.4886 46.4882 44.9858 46.9474C45.4877 47.4067 46.0914 47.6364 46.7969 47.6364ZM54.6165 49L61.1222 36.1307V36.017H53.6222V34.4545H62.9403V36.1023L56.4631 49H54.6165Z" fill="#FFFFF0"/>
</svg>
