<svg width="123" height="122" viewBox="0 0 123 122" fill="none" xmlns="http://www.w3.org/2000/svg">
<circle cx="61.5" cy="16" r="16" fill="#E6D089"/>
<circle cx="61.5" cy="106" r="16" fill="#E6D089"/>
<circle cx="106.5" cy="61" r="16" transform="rotate(90 106.5 61)" fill="#E6D089"/>
<circle cx="16.5" cy="61" r="16" transform="rotate(90 16.5 61)" fill="#E6D089"/>
<rect x="19.5" y="19" width="84" height="84" rx="42" fill="#D4AF37" fill-opacity="0.8"/>
<path d="M39.4659 55.017V53.4545H50.375V55.017H45.8011V68H44.0398V55.017H39.4659ZM57.6317 59.946V61.5085H51.2681V59.946H57.6317ZM65.2969 68.1989C64.2268 68.1989 63.3153 67.9077 62.5625 67.3253C61.8097 66.7382 61.2344 65.8883 60.8366 64.7756C60.4389 63.6581 60.2401 62.3087 60.2401 60.7273C60.2401 59.1553 60.4389 57.813 60.8366 56.7003C61.2391 55.5829 61.8168 54.7306 62.5696 54.1435C63.3272 53.5516 64.2363 53.2557 65.2969 53.2557C66.3575 53.2557 67.2642 53.5516 68.017 54.1435C68.7746 54.7306 69.3523 55.5829 69.75 56.7003C70.1525 57.813 70.3537 59.1553 70.3537 60.7273C70.3537 62.3087 70.1548 63.6581 69.7571 64.7756C69.3594 65.8883 68.7841 66.7382 68.0312 67.3253C67.2784 67.9077 66.367 68.1989 65.2969 68.1989ZM65.2969 66.6364C66.3575 66.6364 67.1813 66.125 67.7685 65.1023C68.3556 64.0795 68.6491 62.6212 68.6491 60.7273C68.6491 59.4678 68.5142 58.3954 68.2443 57.5099C67.9792 56.6245 67.5956 55.9498 67.0938 55.4858C66.5966 55.0218 65.9976 54.7898 65.2969 54.7898C64.2457 54.7898 63.4242 55.3082 62.8324 56.3452C62.2405 57.3774 61.9446 58.8381 61.9446 60.7273C61.9446 61.9867 62.0772 63.0568 62.3423 63.9375C62.6075 64.8182 62.9886 65.4882 63.4858 65.9474C63.9877 66.4067 64.5914 66.6364 65.2969 66.6364ZM77.8821 68.1989C77.2855 68.1894 76.6889 68.0758 76.0923 67.858C75.4957 67.6402 74.9512 67.2732 74.4588 66.7571C73.9664 66.2363 73.571 65.5331 73.2727 64.6477C72.9744 63.7576 72.8253 62.6402 72.8253 61.2955C72.8253 60.0076 72.946 58.8665 73.1875 57.8722C73.429 56.8731 73.7794 56.0327 74.2386 55.3509C74.6979 54.6643 75.2519 54.1435 75.9006 53.7884C76.554 53.4332 77.2902 53.2557 78.1094 53.2557C78.9238 53.2557 79.6482 53.419 80.2827 53.7457C80.9219 54.0677 81.4427 54.5175 81.8452 55.0952C82.2476 55.6728 82.508 56.3381 82.6264 57.0909H80.8935C80.7325 56.4375 80.42 55.8954 79.956 55.4645C79.492 55.0336 78.8764 54.8182 78.1094 54.8182C76.9825 54.8182 76.0947 55.3082 75.446 56.2884C74.8021 57.2685 74.4777 58.6439 74.473 60.4148H74.5866C74.8518 60.0123 75.1667 59.669 75.5312 59.3849C75.9006 59.0961 76.3078 58.8736 76.7528 58.7173C77.1979 58.5611 77.669 58.483 78.1662 58.483C78.9995 58.483 79.7618 58.6913 80.4531 59.108C81.1444 59.5199 81.6984 60.0904 82.1151 60.8196C82.5317 61.544 82.7401 62.375 82.7401 63.3125C82.7401 64.2121 82.5388 65.036 82.1364 65.7841C81.7339 66.5275 81.1681 67.1193 80.4389 67.5597C79.7145 67.9953 78.8622 68.2083 77.8821 68.1989ZM77.8821 66.6364C78.4787 66.6364 79.0137 66.4872 79.4872 66.1889C79.9654 65.8906 80.3419 65.4905 80.6165 64.9886C80.8958 64.4867 81.0355 63.928 81.0355 63.3125C81.0355 62.7112 80.9006 62.1643 80.6307 61.6719C80.3655 61.1747 79.9986 60.7794 79.5298 60.4858C79.0658 60.1922 78.5355 60.0455 77.9389 60.0455C77.4891 60.0455 77.0701 60.1354 76.6818 60.3153C76.2936 60.4905 75.9527 60.732 75.6591 61.0398C75.3703 61.3475 75.143 61.7003 74.9773 62.098C74.8116 62.491 74.7287 62.9053 74.7287 63.3409C74.7287 63.9186 74.8636 64.4583 75.1335 64.9602C75.4081 65.4621 75.7822 65.867 76.2557 66.1747C76.7339 66.4825 77.276 66.6364 77.8821 66.6364Z" fill="#FFFFF0"/>
</svg>
