<svg width="24" height="26" viewBox="0 0 24 26" fill="none" xmlns="http://www.w3.org/2000/svg">
<path d="M2.53001 15.02C2.31701 16.414 3.26801 17.381 4.43201 17.863C8.89501 19.713 15.105 19.713 19.568 17.863C20.732 17.381 21.683 16.413 21.47 15.02C21.34 14.163 20.693 13.45 20.214 12.753C19.587 11.829 19.525 10.822 19.524 9.75C19.525 5.608 16.157 2.25 12 2.25C7.843 2.25 4.47501 5.608 4.47501 9.75C4.47501 10.822 4.41301 11.83 3.78501 12.753C3.30701 13.45 2.66101 14.163 2.53001 15.02Z" stroke="#D4AF37" stroke-width="1.5" stroke-linecap="round" stroke-linejoin="round"/>
<path d="M8 19.25C8.458 20.975 10.076 22.25 12 22.25C13.925 22.25 15.541 20.975 16 19.25" stroke="#D4AF37" stroke-width="1.5" stroke-linecap="round" stroke-linejoin="round"/>
<circle cx="2.5" cy="23.25" r="2.5" fill="#FF2020"/>
</svg>
