<svg width="210" height="124" viewBox="0 0 210 124" fill="none" xmlns="http://www.w3.org/2000/svg">
<circle cx="48.5" cy="20.5" r="20.5" fill="#2C2C2C" fill-opacity="0.1"/>
<circle cx="48.5" cy="103.5" r="20.5" fill="#2C2C2C" fill-opacity="0.1"/>
<circle cx="101.5" cy="20.5" r="20.5" fill="#2C2C2C" fill-opacity="0.1"/>
<circle cx="101.5" cy="103.5" r="20.5" fill="#2C2C2C" fill-opacity="0.1"/>
<circle cx="154.5" cy="20.5" r="20.5" fill="#2C2C2C" fill-opacity="0.1"/>
<circle cx="154.5" cy="103.5" r="20.5" fill="#2C2C2C" fill-opacity="0.1"/>
<rect y="20" width="210" height="84" rx="42" fill="black" fill-opacity="0.2"/>
<path d="M84.9893 56.017V54.4545H95.8984V56.017H91.3246V69H89.5632V56.017H84.9893ZM103.155 60.946V62.5085H96.7915V60.946H103.155ZM111.19 54.4545V69H109.428V56.3011H109.343L105.792 58.6591V56.8693L109.428 54.4545H111.19ZM115.373 69V67.7216L120.174 62.4659C120.737 61.8504 121.201 61.3153 121.566 60.8608C121.931 60.4015 122.201 59.9706 122.376 59.5682C122.556 59.161 122.646 58.7348 122.646 58.2898C122.646 57.7784 122.522 57.3357 122.276 56.9616C122.035 56.5876 121.703 56.2988 121.282 56.0952C120.861 55.8916 120.387 55.7898 119.862 55.7898C119.303 55.7898 118.815 55.9058 118.398 56.1378C117.987 56.3651 117.667 56.6847 117.44 57.0966C117.217 57.5085 117.106 57.9915 117.106 58.5455H115.43C115.43 57.6932 115.626 56.9451 116.019 56.3011C116.412 55.6572 116.947 55.1553 117.624 54.7955C118.306 54.4356 119.071 54.2557 119.918 54.2557C120.771 54.2557 121.526 54.4356 122.184 54.7955C122.842 55.1553 123.358 55.6406 123.732 56.2514C124.106 56.8622 124.293 57.5417 124.293 58.2898C124.293 58.8248 124.196 59.348 124.002 59.8594C123.813 60.366 123.481 60.9318 123.008 61.5568C122.539 62.1771 121.888 62.9347 121.055 63.8295L117.788 67.3239V67.4375H124.549V69H115.373Z" fill="#FFFFF0"/>
</svg>
