<svg width="214" height="124" viewBox="0 0 214 124" fill="none" xmlns="http://www.w3.org/2000/svg">
<circle cx="50.5" cy="20.5" r="20.5" fill="#E6D089"/>
<circle cx="50.5" cy="103.5" r="20.5" fill="#E6D089"/>
<circle cx="103.5" cy="20.5" r="20.5" fill="#E6D089"/>
<circle cx="103.5" cy="103.5" r="20.5" fill="#E6D089"/>
<circle cx="156.5" cy="20.5" r="20.5" fill="#E6D089"/>
<circle cx="156.5" cy="103.5" r="20.5" fill="#E6D089"/>
<rect y="20" width="214" height="84" rx="42" fill="#D4AF37" fill-opacity="0.8"/>
<path d="M85.3585 56.017V54.4545H96.2676V56.017H91.6937V69H89.9324V56.017H85.3585ZM103.524 60.946V62.5085H97.1607V60.946H103.524ZM111.189 69.1989C110.119 69.1989 109.208 68.9077 108.455 68.3253C107.702 67.7382 107.127 66.8883 106.729 65.7756C106.331 64.6581 106.133 63.3087 106.133 61.7273C106.133 60.1553 106.331 58.813 106.729 57.7003C107.132 56.5829 107.709 55.7306 108.462 55.1435C109.22 54.5516 110.129 54.2557 111.189 54.2557C112.25 54.2557 113.157 54.5516 113.91 55.1435C114.667 55.7306 115.245 56.5829 115.643 57.7003C116.045 58.813 116.246 60.1553 116.246 61.7273C116.246 63.3087 116.047 64.6581 115.65 65.7756C115.252 66.8883 114.677 67.7382 113.924 68.3253C113.171 68.9077 112.26 69.1989 111.189 69.1989ZM111.189 67.6364C112.25 67.6364 113.074 67.125 113.661 66.1023C114.248 65.0795 114.542 63.6212 114.542 61.7273C114.542 60.4678 114.407 59.3954 114.137 58.5099C113.872 57.6245 113.488 56.9498 112.986 56.4858C112.489 56.0218 111.89 55.7898 111.189 55.7898C110.138 55.7898 109.317 56.3082 108.725 57.3452C108.133 58.3774 107.837 59.8381 107.837 61.7273C107.837 62.9867 107.97 64.0568 108.235 64.9375C108.5 65.8182 108.881 66.4882 109.378 66.9474C109.88 67.4067 110.484 67.6364 111.189 67.6364ZM123.491 69.1989C122.657 69.1989 121.907 69.0331 121.239 68.7017C120.572 68.3703 120.037 67.9157 119.634 67.3381C119.232 66.7604 119.011 66.1023 118.974 65.3636H120.678C120.744 66.0218 121.043 66.5663 121.573 66.9972C122.108 67.4233 122.747 67.6364 123.491 67.6364C124.087 67.6364 124.617 67.4967 125.081 67.2173C125.55 66.938 125.917 66.5545 126.182 66.0668C126.452 65.5743 126.587 65.018 126.587 64.3977C126.587 63.7633 126.448 63.1974 126.168 62.7003C125.894 62.1984 125.515 61.803 125.032 61.5142C124.549 61.2254 123.997 61.0786 123.377 61.0739C122.932 61.0691 122.475 61.1378 122.006 61.2798C121.537 61.4171 121.152 61.5947 120.849 61.8125L119.201 61.6136L120.081 54.4545H127.638V56.017H121.559L121.047 60.3068H121.133C121.431 60.0701 121.805 59.8736 122.255 59.7173C122.705 59.5611 123.173 59.483 123.661 59.483C124.551 59.483 125.344 59.696 126.04 60.1222C126.741 60.5436 127.29 61.1212 127.688 61.8551C128.09 62.589 128.292 63.4271 128.292 64.3693C128.292 65.2973 128.083 66.1259 127.667 66.8551C127.255 67.5795 126.687 68.1525 125.962 68.5739C125.238 68.9905 124.414 69.1989 123.491 69.1989Z" fill="#FFFFF0"/>
</svg>
