<svg width="214" height="124" viewBox="0 0 214 124" fill="none" xmlns="http://www.w3.org/2000/svg">
<circle cx="50.5" cy="20.5" r="20.5" fill="#800020" fill-opacity="0.4"/>
<circle cx="50.5" cy="103.5" r="20.5" fill="#800020" fill-opacity="0.4"/>
<circle cx="103.5" cy="20.5" r="20.5" fill="#800020" fill-opacity="0.4"/>
<circle cx="103.5" cy="103.5" r="20.5" fill="#800020" fill-opacity="0.4"/>
<circle cx="156.5" cy="20.5" r="20.5" fill="#800020" fill-opacity="0.4"/>
<circle cx="156.5" cy="103.5" r="20.5" fill="#800020" fill-opacity="0.4"/>
<rect y="20" width="214" height="84" rx="42" fill="#800020" fill-opacity="0.8"/>
<path d="M85.0753 56.017V54.4545H95.9844V56.017H91.4105V69H89.6491V56.017H85.0753ZM103.241 60.946V62.5085H96.8775V60.946H103.241ZM110.906 69.1989C109.836 69.1989 108.925 68.9077 108.172 68.3253C107.419 67.7382 106.844 66.8883 106.446 65.7756C106.048 64.6581 105.849 63.3087 105.849 61.7273C105.849 60.1553 106.048 58.813 106.446 57.7003C106.848 56.5829 107.426 55.7306 108.179 55.1435C108.937 54.5516 109.846 54.2557 110.906 54.2557C111.967 54.2557 112.874 54.5516 113.626 55.1435C114.384 55.7306 114.962 56.5829 115.359 57.7003C115.762 58.813 115.963 60.1553 115.963 61.7273C115.963 63.3087 115.764 64.6581 115.366 65.7756C114.969 66.8883 114.393 67.7382 113.641 68.3253C112.888 68.9077 111.976 69.1989 110.906 69.1989ZM110.906 67.6364C111.967 67.6364 112.791 67.125 113.378 66.1023C113.965 65.0795 114.259 63.6212 114.259 61.7273C114.259 60.4678 114.124 59.3954 113.854 58.5099C113.589 57.6245 113.205 56.9498 112.703 56.4858C112.206 56.0218 111.607 55.7898 110.906 55.7898C109.855 55.7898 109.034 56.3082 108.442 57.3452C107.85 58.3774 107.554 59.8381 107.554 61.7273C107.554 62.9867 107.687 64.0568 107.952 64.9375C108.217 65.8182 108.598 66.4882 109.095 66.9474C109.597 67.4067 110.201 67.6364 110.906 67.6364ZM123.577 69.1989C122.639 69.1989 121.804 69.0379 121.07 68.7159C120.34 68.3939 119.76 67.9465 119.33 67.3736C118.903 66.7959 118.671 66.1259 118.634 65.3636H120.423C120.461 65.8324 120.622 66.2372 120.906 66.5781C121.19 66.9143 121.562 67.1747 122.021 67.3594C122.481 67.544 122.99 67.6364 123.548 67.6364C124.173 67.6364 124.727 67.5275 125.21 67.3097C125.693 67.0919 126.072 66.7888 126.347 66.4006C126.621 66.0123 126.759 65.5625 126.759 65.0511C126.759 64.5161 126.626 64.045 126.361 63.6378C126.096 63.2259 125.707 62.9039 125.196 62.6719C124.685 62.4399 124.06 62.3239 123.321 62.3239H122.156V60.7614H123.321C123.899 60.7614 124.405 60.6572 124.841 60.4489C125.281 60.2405 125.625 59.947 125.871 59.5682C126.122 59.1894 126.247 58.7443 126.247 58.233C126.247 57.7405 126.138 57.312 125.92 56.9474C125.703 56.5829 125.395 56.2988 124.997 56.0952C124.604 55.8916 124.14 55.7898 123.605 55.7898C123.103 55.7898 122.63 55.8821 122.185 56.0668C121.744 56.2467 121.384 56.5095 121.105 56.8551C120.826 57.196 120.674 57.608 120.651 58.0909H118.946C118.974 57.3286 119.204 56.661 119.635 56.0881C120.066 55.5104 120.629 55.0606 121.325 54.7386C122.026 54.4167 122.795 54.2557 123.634 54.2557C124.533 54.2557 125.305 54.438 125.949 54.8026C126.593 55.1624 127.088 55.6383 127.433 56.2301C127.779 56.822 127.952 57.4612 127.952 58.1477C127.952 58.9669 127.736 59.6652 127.305 60.2429C126.879 60.8205 126.299 61.2206 125.565 61.4432V61.5568C126.484 61.7083 127.201 62.099 127.717 62.7287C128.233 63.3537 128.491 64.1278 128.491 65.0511C128.491 65.8419 128.276 66.5521 127.845 67.1818C127.419 67.8068 126.837 68.2992 126.098 68.6591C125.359 69.0189 124.519 69.1989 123.577 69.1989Z" fill="#FFFFF0"/>
</svg>
