<svg width="123" height="122" viewBox="0 0 123 122" fill="none" xmlns="http://www.w3.org/2000/svg">
<circle cx="61.5" cy="16" r="16" fill="#E6D089"/>
<circle cx="61.5" cy="106" r="16" fill="#E6D089"/>
<circle cx="106.5" cy="61" r="16" transform="rotate(90 106.5 61)" fill="#E6D089"/>
<circle cx="16.5" cy="61" r="16" transform="rotate(90 16.5 61)" fill="#E6D089"/>
<rect x="19.5" y="19" width="84" height="84" rx="42" fill="#D4AF37" fill-opacity="0.8"/>
<path d="M39.4659 55.017V53.4545H50.375V55.017H45.8011V68H44.0398V55.017H39.4659ZM57.6317 59.946V61.5085H51.2681V59.946H57.6317ZM65.2969 68.1989C64.2268 68.1989 63.3153 67.9077 62.5625 67.3253C61.8097 66.7382 61.2344 65.8883 60.8366 64.7756C60.4389 63.6581 60.2401 62.3087 60.2401 60.7273C60.2401 59.1553 60.4389 57.813 60.8366 56.7003C61.2391 55.5829 61.8168 54.7306 62.5696 54.1435C63.3272 53.5516 64.2363 53.2557 65.2969 53.2557C66.3575 53.2557 67.2642 53.5516 68.017 54.1435C68.7746 54.7306 69.3523 55.5829 69.75 56.7003C70.1525 57.813 70.3537 59.1553 70.3537 60.7273C70.3537 62.3087 70.1548 63.6581 69.7571 64.7756C69.3594 65.8883 68.7841 66.7382 68.0312 67.3253C67.2784 67.9077 66.367 68.1989 65.2969 68.1989ZM65.2969 66.6364C66.3575 66.6364 67.1813 66.125 67.7685 65.1023C68.3556 64.0795 68.6491 62.6212 68.6491 60.7273C68.6491 59.4678 68.5142 58.3954 68.2443 57.5099C67.9792 56.6245 67.5956 55.9498 67.0938 55.4858C66.5966 55.0218 65.9976 54.7898 65.2969 54.7898C64.2457 54.7898 63.4242 55.3082 62.8324 56.3452C62.2405 57.3774 61.9446 58.8381 61.9446 60.7273C61.9446 61.9867 62.0772 63.0568 62.3423 63.9375C62.6075 64.8182 62.9886 65.4882 63.4858 65.9474C63.9877 66.4067 64.5914 66.6364 65.2969 66.6364ZM77.6832 53.2557C78.2798 53.2604 78.8764 53.3741 79.473 53.5966C80.0696 53.8191 80.6141 54.1884 81.1065 54.7045C81.599 55.2159 81.9943 55.9143 82.2926 56.7997C82.5909 57.6851 82.7401 58.7955 82.7401 60.1307C82.7401 61.4233 82.617 62.5715 82.3707 63.5753C82.1293 64.5743 81.7789 65.4171 81.3196 66.1037C80.8651 66.7902 80.3111 67.3111 79.6577 67.6662C79.009 68.0213 78.2751 68.1989 77.456 68.1989C76.6416 68.1989 75.9148 68.0379 75.2756 67.7159C74.6411 67.3892 74.1203 66.937 73.7131 66.3594C73.3106 65.777 73.0526 65.1023 72.9389 64.3352H74.6719C74.8281 65.0028 75.1383 65.5545 75.6023 65.9901C76.071 66.4209 76.6889 66.6364 77.456 66.6364C78.5781 66.6364 79.4635 66.1463 80.1122 65.1662C80.7656 64.1861 81.0923 62.8011 81.0923 61.0114H80.9787C80.7135 61.4091 80.3987 61.7524 80.0341 62.0412C79.6695 62.33 79.2647 62.5526 78.8196 62.7088C78.3745 62.8651 77.901 62.9432 77.3991 62.9432C76.5658 62.9432 75.8011 62.7372 75.1051 62.3253C74.4138 61.9086 73.8598 61.3381 73.4432 60.6136C73.0312 59.8845 72.8253 59.0511 72.8253 58.1136C72.8253 57.2235 73.0241 56.4091 73.4219 55.6705C73.8243 54.9271 74.3878 54.3352 75.1122 53.8949C75.8414 53.4545 76.6984 53.2415 77.6832 53.2557ZM77.6832 54.8182C77.0866 54.8182 76.5492 54.9673 76.071 55.2656C75.5975 55.5592 75.2211 55.9569 74.9418 56.4588C74.6671 56.956 74.5298 57.5076 74.5298 58.1136C74.5298 58.7197 74.6624 59.2713 74.9276 59.7685C75.1974 60.2609 75.5644 60.6539 76.0284 60.9474C76.4972 61.2363 77.0298 61.3807 77.6264 61.3807C78.0762 61.3807 78.4953 61.2931 78.8835 61.1179C79.2718 60.938 79.6103 60.6941 79.8991 60.3864C80.1927 60.0739 80.4223 59.7211 80.5881 59.3281C80.7538 58.9304 80.8366 58.5161 80.8366 58.0852C80.8366 57.517 80.6993 56.9844 80.4247 56.4872C80.1548 55.9901 79.7808 55.5876 79.3026 55.2798C78.8291 54.9721 78.2893 54.8182 77.6832 54.8182Z" fill="#FFFFF0"/>
</svg>
